<mxfile host="app.diagrams.net" modified="2023-06-28T14:21:18.205Z" agent="Mozilla/5.0 (Windows NT 10.0; Win64; x64) AppleWebKit/537.36 (KHTML, like Gecko) Chrome/114.0.0.0 Safari/537.36" version="21.5.0" etag="XzN3iFUY_V-ATG-DcfeW" type="github">
  <diagram name="Page-1" id="fh3RSouNH-QUKh8bbgXz">
    <mxGraphModel>
      <root>
        <mxCell id="0" />
        <mxCell id="1" parent="0" />
      </root>
    </mxGraphModel>
  </diagram>
</mxfile>
